<?xml version="1.0" standalone="no"?>
<!DOCTYPE svg PUBLIC "-//W3C//DTD SVG 20010904//EN"
 "http://www.w3.org/TR/2001/REC-SVG-20010904/DTD/svg10.dtd">
<svg version="1.0" xmlns="http://www.w3.org/2000/svg"
 width="920.000000pt" height="777.000000pt" viewBox="0 0 920.000000 777.000000"
 preserveAspectRatio="xMidYMid meet">
<metadata>
Created by potrace 1.16, written by Peter Selinger 2001-2019
</metadata>
<g transform="translate(0.000000,777.000000) scale(0.100000,-0.100000)"
fill="#000000" stroke="none">
<path d="M4555 7356 c-77 -24 -6 33 -770 -617 -269 -229 -521 -444 -560 -478
-46 -39 -79 -60 -96 -61 -24 0 -77 39 -293 218 -202 167 -244 170 -430 29
-249 -189 -1244 -1044 -1279 -1098 -22 -33 -25 -126 -6 -188 19 -64 161 -217
278 -300 17 -12 31 -27 31 -32 0 -20 -98 -115 -250 -243 -85 -71 -210 -184
-277 -251 l-123 -120 0 -57 c0 -143 122 -314 318 -445 45 -31 85 -60 88 -65 9
-14 -14 -36 -236 -227 -113 -97 -236 -206 -275 -243 l-70 -66 0 -84 c0 -78 3
-90 39 -163 104 -210 410 -416 838 -564 98 -33 315 -95 458 -129 l35 -8 7
-160 c4 -87 10 -209 14 -270 l6 -111 66 -58 c79 -68 195 -126 307 -151 117
-27 339 -25 457 4 114 28 218 81 286 145 79 75 85 92 90 237 2 69 8 133 14
143 12 24 52 22 145 -8 85 -26 264 -70 435 -105 127 -27 114 0 123 -255 10
-303 34 -401 111 -460 52 -40 201 -112 259 -126 31 -7 144 -12 300 -12 286 0
326 6 458 75 176 91 199 143 212 473 3 77 8 172 11 211 l5 71 182 38 c100 21
236 54 302 73 143 42 181 48 199 33 9 -8 15 -50 18 -139 7 -154 17 -181 97
-254 65 -59 162 -109 276 -139 107 -29 354 -32 460 -6 140 35 230 81 329 169
l49 44 11 262 c6 146 15 265 21 270 6 5 75 26 155 46 509 130 871 307 1072
525 87 94 129 178 136 269 8 124 33 96 -436 502 -176 151 -171 136 -57 213 93
63 161 124 212 191 92 122 133 249 100 313 -18 34 -154 162 -367 343 -166 141
-280 249 -280 266 0 6 31 34 69 62 177 132 281 302 251 412 -8 29 -35 61 -123
142 -218 202 -595 529 -942 819 -305 253 -357 289 -424 289 -73 0 -125 -35
-405 -274 -106 -89 -118 -97 -135 -85 -11 8 -169 142 -352 299 -1053 903
-1044 897 -1144 866z m405 -720 c242 -202 417 -351 958 -814 131 -112 133
-114 115 -135 -30 -33 -138 -99 -324 -196 -126 -66 -189 -105 -220 -137 -41
-42 -44 -48 -44 -100 l0 -56 130 -126 c72 -70 211 -197 310 -282 498 -430 579
-507 573 -539 -7 -37 -246 -192 -473 -306 -150 -76 -170 -89 -196 -132 -17
-28 -20 -45 -17 -90 l5 -56 119 -117 c65 -64 279 -253 474 -419 195 -167 356
-307 358 -311 4 -12 -161 -146 -253 -205 -334 -216 -838 -389 -1317 -450 -300
-38 -831 -38 -1123 0 -519 68 -1095 275 -1397 503 -90 68 -184 150 -177 155
44 36 576 490 634 541 164 146 261 238 293 278 27 35 32 49 32 96 0 53 -2 58
-48 101 -32 31 -99 73 -208 129 -88 45 -195 104 -237 130 -85 52 -217 161
-216 177 0 5 19 26 43 45 189 156 644 547 787 678 182 166 209 201 209 268 0
33 -7 45 -55 91 -45 44 -90 71 -249 148 -107 52 -208 107 -225 121 -60 50 -37
100 111 239 146 138 1022 877 1191 1006 l79 59 41 -32 c23 -18 166 -136 317
-262z m-2294 -559 c33 -24 83 -65 112 -91 l52 -48 -37 -50 c-68 -93 -74 -187
-19 -295 53 -105 129 -179 341 -331 l88 -63 -39 -41 c-34 -35 -163 -147 -554
-482 -236 -201 -300 -277 -300 -353 0 -161 160 -367 415 -535 137 -90 161
-110 150 -128 -4 -6 -122 -108 -263 -228 -378 -319 -490 -419 -507 -452 -54
-104 -7 -269 121 -424 33 -39 50 -66 41 -66 -31 0 -257 42 -352 66 -160 40
-332 94 -450 141 -162 65 -388 195 -440 253 l-20 22 60 57 c33 31 144 128 245
215 102 88 236 210 298 271 l112 112 0 54 c0 96 -41 138 -233 236 -171 88
-296 175 -286 201 2 5 58 54 124 109 182 152 407 354 532 477 91 91 113 118
118 148 17 91 -25 134 -225 238 -152 79 -190 104 -190 123 0 7 14 29 31 50 74
89 977 857 1008 857 5 0 35 -20 67 -43z m4130 -117 c247 -202 657 -554 753
-648 47 -46 81 -87 81 -98 0 -21 -47 -51 -227 -144 -162 -84 -211 -148 -183
-237 20 -63 170 -202 702 -652 l78 -66 -48 -45 c-27 -25 -94 -70 -151 -100
-296 -159 -331 -189 -331 -289 l0 -56 113 -110 c61 -61 191 -178 287 -261 237
-202 315 -277 305 -294 -14 -22 -216 -149 -335 -210 -142 -72 -297 -126 -528
-184 -185 -46 -379 -82 -389 -72 -3 3 10 23 29 44 114 126 180 287 159 385
-13 55 -100 139 -499 481 -166 142 -302 262 -302 266 0 11 30 34 140 108 251
168 401 340 430 492 18 95 5 122 -117 240 -59 58 -248 225 -418 371 -171 147
-320 278 -333 291 l-23 25 38 30 c21 16 76 56 123 88 178 124 278 255 302 396
14 83 7 108 -47 169 -25 28 -45 54 -45 58 1 11 166 144 202 163 18 10 38 14
45 10 7 -3 92 -72 189 -151z m-3946 -4005 l0 -154 -42 -12 c-81 -21 -173 -39
-208 -39 -35 0 -127 18 -208 39 l-42 12 0 154 0 155 250 0 250 0 0 -155z
m3998 2 l3 -148 -34 -14 c-18 -7 -73 -21 -122 -30 -99 -19 -156 -15 -277 17
l-78 20 0 154 0 154 253 -2 252 -3 3 -148z m-1940 -389 l-3 -193 -85 -22
c-162 -41 -291 -40 -467 4 l-63 15 0 194 0 194 310 0 310 0 -2 -192z"/>
</g>
</svg>
