<?xml version="1.0" standalone="no"?>
<!DOCTYPE svg PUBLIC "-//W3C//DTD SVG 20010904//EN"
 "http://www.w3.org/TR/2001/REC-SVG-20010904/DTD/svg10.dtd">
<svg version="1.0" xmlns="http://www.w3.org/2000/svg"
 width="820.000000pt" height="797.000000pt" viewBox="0 0 820.000000 797.000000"
 preserveAspectRatio="xMidYMid meet">
<metadata>
Created by potrace 1.16, written by Peter Selinger 2001-2019
</metadata>
<g transform="translate(0.000000,797.000000) scale(0.100000,-0.100000)"
fill="#000000" stroke="none">
<path d="M6696 7538 c-3 -13 -12 -61 -21 -108 -74 -388 -319 -755 -658 -983
-165 -111 -407 -208 -601 -240 -44 -7 -81 -17 -83 -23 -2 -5 48 -19 109 -31
293 -57 563 -194 769 -391 251 -238 397 -500 465 -831 32 -159 35 -160 64 -10
78 405 316 766 656 994 170 115 393 206 587 240 91 16 126 30 95 39 -7 2 -55
11 -107 20 -136 25 -239 60 -386 131 -168 81 -284 164 -421 300 -222 221 -363
488 -425 803 -22 110 -34 135 -43 90z m84 -926 c84 -113 241 -270 358 -356 50
-38 92 -72 92 -75 -1 -3 -33 -28 -73 -56 -93 -64 -327 -299 -392 -392 -27 -40
-53 -71 -56 -70 -4 1 -34 39 -68 85 -105 142 -282 314 -408 397 -24 15 -43 31
-43 35 0 4 34 33 75 64 147 111 280 244 388 389 27 37 53 67 56 67 3 0 35 -39
71 -88z"/>
<path d="M3164 7092 c-7 -4 -24 -79 -39 -167 -100 -595 -341 -1135 -714 -1598
-555 -688 -1331 -1131 -2204 -1258 -146 -21 -138 -51 20 -75 1091 -164 2033
-833 2551 -1814 163 -309 290 -684 342 -1014 29 -179 32 -191 55 -191 17 0 22
11 32 80 63 407 161 720 328 1057 502 1008 1458 1708 2564 1878 68 11 129 24
134 29 20 20 -2 39 -55 46 -606 76 -1220 338 -1713 731 -141 113 -416 387
-529 529 -97 122 -245 341 -325 482 -191 337 -337 764 -396 1158 -17 109 -29
141 -51 127z m87 -1262 c188 -386 402 -684 713 -996 323 -322 624 -537 1019
-729 l149 -72 -157 -76 c-400 -196 -701 -411 -1015 -726 -299 -300 -524 -616
-710 -994 l-77 -158 -62 128 c-376 778 -978 1383 -1747 1755 l-148 71 140 67
c537 258 1009 645 1371 1125 143 190 297 444 395 654 27 57 51 101 54 98 3 -3
37 -69 75 -147z"/>
<path d="M6067 2855 c-84 -471 -401 -895 -832 -1110 -130 -65 -283 -116 -418
-140 -99 -18 -127 -31 -85 -39 13 -3 70 -15 127 -26 298 -61 553 -200 777
-424 225 -226 361 -478 426 -794 13 -62 28 -112 33 -110 5 2 19 51 31 109 126
624 615 1112 1225 1224 114 21 119 22 119 34 0 5 -44 17 -97 26 -615 111
-1110 589 -1242 1198 -12 53 -21 108 -21 122 0 14 -6 25 -13 25 -9 0 -19 -32
-30 -95z m94 -842 c80 -112 247 -279 366 -367 l92 -69 -81 -60 c-146 -109
-352 -322 -415 -428 -10 -16 -22 -29 -28 -29 -5 1 -35 35 -65 78 -72 101 -263
293 -370 372 -47 34 -86 63 -88 65 -1 1 41 35 94 75 123 94 260 231 354 354
40 53 74 96 75 96 2 0 31 -39 66 -87z"/>
</g>
</svg>
